<svg id="logo" xmlns="http://www.w3.org/2000/svg" viewBox="0 0 542.5 198.75">
    <g transform="matrix(.125 0 0 -.125 0 198.75)">
        <path
                d="M2583.83 28.148a97.84 97.84 0 0 0-12.97 19.492c-6.8 13.238-10.35 27.03-13.9 41.25-3.5 14.257-7 28.988-13.36 44.218-6.25 15.16-15.35 31.37-29.72 47.97-17.54 19.922-36.1 35.78-54.3 47.46-9.1 5.7-18.05 11.05-26.76 15.4-8.67 4.4-17.07 7.968-25 10.86-15.74 6.172-29.45 9.96-39.33 11.95-9.93 1.96-15.86 2.782-15.86 2.782 1.64-3.95 3.04-7.848 4.3-11.64 1.25-3.707 2.3-7.43 3.25-11.06 1.83-7.3 3.04-14.37 3.86-21.332 1.68-13.937 1.8-27.38 2.46-40.816.67-13.434 1.88-26.87 5.98-40.902 2.03-6.95 4.8-14.14 8.63-21.4 3.87-7.2 8.75-14.57 15-22.1 8-9.73 17.27-18.6 27.4-26.762 10.1-7.93 21.05-14.84 32.34-21.172 5.7-3.156 11.45-6.13 17.27-8.906 5.78-2.812 11.6-5.113 17.42-7.422 11.64-4.57 23.16-8.44 34.18-11.72 22.07-6.293 41.95-9.723 56.3-11.953 7.18-1.13 12.93-1.488 16.95-1.88l6.13-.46c-8.24 5.9-14.84 11.87-20.23 18.16m232 37.855c-8.56 11.1-14.3 23.238-20.16 35.98-11.56 25.47-23.63 52.5-56.13 78.6-39.34 32.27-79.6 45.2-110.9 51.2-15.62 3.13-28.94 3.64-38.44 4.098-9.45.36-15.03-.1-15.03-.1 9.18-13.282 15-26.25 19.33-38.9 4.34-12.54 7.15-24.88 10.5-37.187 3.24-12.262 7.07-24.453 13.6-36.602a118.17 118.17 0 0 1 12.1-18.242c4.88-6.058 10.78-12.308 17.9-18.1 36.4-30.3 88.17-44.68 130-49.18 10.5-1.207 20.4-2.027 29.34-2.457 8.9-.23 16.83-.23 23.48-.082 13.24.28 21.25 1.02 21.25 1.02-17.04 8.633-28.32 18.832-36.84 29.96m252.07 37.622a98.71 98.71 0 0 0-16.8 12.65c-9.76 9.152-17.18 19.54-24.72 30.32-7.58 10.86-15.2 21.87-25.36 32.93-10.15 11.05-22.77 21.75-40 31.48-5.2 3.012-10.4 5.63-15.54 8.05a219.03 219.03 0 0 1-15.28 6.758c-10.03 3.98-19.8 7.03-29.2 9.25-9.42 2.152-18.48 3.953-27.04 5-8.6 1.14-16.7 1.613-24.14 1.722-7.46 0-14.25-.152-20.4-.5-6.05-.3-11.36-.93-15.74-1.56-8.75-1.2-13.8-2.62-13.8-2.62 21.88-21.36 31.06-43.63 41.72-65.352 2.7-5.386 5.5-10.816 8.63-16.1 3.17-5.27 6.68-10.43 10.75-15.468 8.24-10.12 18.86-19.8 34.06-28.75 4.92-2.8 9.92-5.43 15.08-7.8 5.15-2.23 10.4-4.223 15.74-6.062 10.7-3.6 21.76-6.32 32.8-8.387 11.1-2.23 22.03-3.133 32.77-3.793 10.67-.63 21.1-.707 30.9-.508 19.5.82 36.45 3.078 48.52 4.957 6.05.98 10.86 1.9 14.18 2.7l5 1.22c-4.22 1.363-8.17 2.852-11.88 4.492-3.67 1.68-7.07 3.47-10.27 5.4m179.16 114.62c-8.83 8.83-17.85 18.04-29.1 26.64-5.63 4.328-11.72 8.32-18.7 12.3-7.03 3.988-14.8 7.7-23.64 11.02-10.7 4.06-21 7-30.97 9.18-10 2.188-19.6 3.8-28.75 4.527-9.14.82-17.78.942-25.86.622-8.1-.23-15.74-.782-22.66-1.75-13.86-1.72-25.08-4.9-32.97-7.23-7.9-2.3-12.34-4.258-12.34-4.258 24.18-16.68 36.56-35.35 50.3-53.6 6.92-9.062 14.22-18 23.64-26.132 9.4-8.168 21.05-15.63 36.56-21.368 19.8-7.382 41.48-11.17 62.38-11.4 20.94-.5 41.5 1.367 59.26 4.8 17.8 3.36 33.16 7.18 43.83 10.86 10.7 3.55 17 6.13 17 6.13-16.68 2.852-29.18 8.12-39.8 15.192-10.62 7.1-19.25 15.6-28.16 24.46m209.2 95.817c-9.77 6.828-19.8 13.937-31.72 20.187-5.98 3.133-12.42 6.024-19.57 8.563-7.1 2.54-14.96 4.687-23.75 6.597-10.66 2.23-20.86 3.6-30.5 4.14-9.65.633-18.7.4-27.38 0-17.3-.937-32.34-4.22-44.88-7.9-25.16-6.988-40.04-16.878-40.04-16.878 25.27-11.25 40.2-26.75 56.25-41.36 4.02-3.64 8.12-7.23 12.5-10.672 4.37-3.398 9.02-6.597 14.1-9.566 10.16-5.934 22.2-10.902 37.7-14.14 39.6-8.082 82 .24 113.9 11.02 16.1 5.078 29.3 11.398 38.7 15.898 9.34 4.57 14.73 7.73 14.73 7.73-15.98.308-28.63 3.558-39.7 8.36-11.05 4.73-20.5 11.172-30.35 18.012m195.78 118.67c-20.6 9.062-42.58 19.53-76.37 20.472-20.66.82-38.94-1.1-54.76-4.812-15.82-3.508-29.5-8.36-40.5-13.6-5.47-2.578-10.3-5.3-14.57-7.73-4.3-2.387-7.9-4.688-10.82-6.637-5.78-3.992-8.83-6.723-8.83-6.723 12.8-3.277 23.44-7.86 33-12.97 9.65-5.04 18.12-10.5 27-15.82 8.75-5.28 17.85-10.28 28.44-14.14 10.62-3.75 22.9-6.72 37.8-7.07 9.57-.238 19.14.43 28.56 1.68 9.37 1.32 18.75 3.2 27.53 5.9 17.66 5.242 34.22 12.04 48.17 19.26 13.83 7.3 25.23 14.57 33.2 19.957l9.22 6.602 3.2 2.54c-30.07-4.25-49.68 4.07-70.27 13.1m179.77 140.66c-10.6 2.312-21.4 4.77-33.52 5.98-12.27 1.48-25.9 1.72-41.87-.55-19.34-2.97-36.22-7.457-50.36-13.2-7.1-2.9-13.5-6.1-19.37-9.257a173.41 173.41 0 0 1-15.94-9.454c-9.33-6.367-16.37-12.457-21-17.027l-5.24-5.4-1.76-1.992c25.24-1.6 42.97-9.027 61.57-15.63 9.25-3.2 18.86-6.37 29.45-7.9 10.66-1.56 22.54-1.88 36.72.203 18.2 2.418 35.4 8.6 51.1 16.047 7.8 3.75 15.4 7.703 22.27 12.03 6.87 4.34 13.28 8.828 19.1 13.172 11.68 8.707 21.17 16.8 27.46 23.156 6.33 6.25 9.77 10.23 9.77 10.23-27.1-9.25-47.3-4.957-68.36-.43m175.72 162.28c-5.16-.226-10.28-.27-15.5-.27-10.47 0-21.17.1-32.85-1.14-5.86-.617-11.95-1.558-18.36-3-6.52-1.367-13.4-3.13-20.7-5.63-35.24-12.27-59.03-29.218-73.87-44.18-15.24-14.37-21.56-26.4-21.56-26.4 12 1.652 22.57 1.652 32.54.86 4.96-.348 9.8-.86 14.57-1.438l13.98-1.64c9.34-1.02 18.83-1.8 29.22-1.172 5.23.27 10.62.93 16.37 2.03 2.9.54 5.9 1.3 8.94 2.03 2.97.9 6.1 1.9 9.3 3.047 16.3 6.012 31.56 14.37 44.8 23.98 13.13 9.77 24.5 20.4 33.8 30.16 9.18 9.883 16.06 19.14 20.86 25.742 4.73 6.64 7.2 10.777 7.2 10.777-12-6.597-22.85-10.078-33.28-11.95-5.2-.937-10.28-1.488-15.43-1.758m120.12 182.534l-14.8-3.9c-5.16-1.37-10.4-2.9-15.78-4.73-10.82-3.668-22.27-8.7-34.7-16.442-15.47-9.097-27.77-18.668-37.38-28.128-4.77-4.8-9.26-9.2-12.97-13.63-3.8-4.4-7.03-8.672-9.73-12.653-5.54-8.008-8.98-15.078-11.25-19.968-2.3-4.918-3.16-7.8-3.16-7.8 11.13 3.828 20.9 6.367 30.4 7.97 9.4 1.68 18.44 2.54 27.58 3.7 18.4 2.148 36.36 6.058 58.83 19.77a151.62 151.62 0 0 1 10.4 6.9c3.33 2.412 6.44 5.04 9.53 7.7 6.05 5.308 11.68 10.902 16.87 16.6 5.16 5.7 10 11.328 14.1 17.1s7.74 11.48 10.94 16.8c6.4 10.75 11.17 20.12 14.14 27 2.9 6.87 4.22 11.05 4.22 11.05-9.5-8.75-19.14-14.18-28.63-18.242-9.45-4.02-18.87-6.558-28.6-9.098m104.72 201.71c-8.6-4.8-17.42-9.73-26.48-15.9a164.17 164.17 0 0 1-6.88-4.92l-7.2-5.43c-4.88-3.83-9.8-8.17-14.8-13.13-6.06-6-11.37-11.95-15.94-17.73a176.88 176.88 0 0 1-12.42-16.4c-7.07-10.55-11.56-20.47-14.96-28.7-6.76-16.48-7.15-27.54-7.15-27.54 9.34 6.37 18.2 10.98 26.84 14.8l24.96 10.66c16.36 7.1 33.32 14.92 50.62 33.16 22.82 23 35.28 51.33 42.5 73 6.56 22.1 7.9 37.77 7.9 37.77-14.25-20.2-29.6-30.07-47-39.64m101.73 256.2l-1.52 9.53c-15.82-44.02-48.1-54.26-74.57-101.25-8.6-14.14-14.22-26.92-17.86-38.32-3.82-11.33-6.13-21.06-7.03-29.26-.93-8.16-.74-14.6-.4-19.1.43-4.45 1.02-6.84 1.02-6.84 13.98 16.92 28.12 27.2 42.03 38.44 6.72 5.74 13.32 11.68 19.8 18.83 3.3 3.6 6.5 7.5 9.65 11.83 3.13 4.3 6.45 9 9.22 14.38 7.23 13.7 12.23 27.58 15.63 40.6 3.12 13.12 4.25 25.5 4.76 35.93.35 10.5.2 19.14-.74 25.24M2419.84 318.93c8.05.16 16.76.82 25.82 2.148 9.07 1.37 18.56 3.28 28.3 6.762 19.37 6.68 39.37 16.87 58.2 33.8 15.43 13.75 25.3 27.7 32.65 42.1 7.23 14.332 11.84 28.55 16.25 42.3 4.42 13.75 8.64 26.992 14.8 39.4 3.12 6.223 6.72 12.192 11.05 17.93 4.34 5.793 9.5 11.57 15.6 16.96 0 0-1.52 0-4.3-.078-2.8-.12-6.95-.55-11.95-.82-10.04-.55-24.14-2.27-40.12-5.472a239.85 239.85 0 0 1-25.23-5.86c-4.38-1.2-8.87-2.77-13.36-4.18-4.42-1.4-8.95-2.97-13.44-4.758-9.06-3.563-18.24-7.973-27.22-13.094-8.9-4.918-17.7-10.7-26.1-17.578-6.6-5.4-12.38-10.94-17.38-16.602-5.08-5.546-9.38-11.168-13.2-16.9-7.7-11.566-13.44-23.558-18.87-35.707s-10.63-24.492-17.46-36.64c-3.4-6.1-7.23-12.153-11.76-18.082-2.3-2.97-4.73-5.938-7.38-8.83-2.62-2.85-5.43-5.67-8.52-8.402 0 0 5.27-2.308 14.73-4.18 9.45-1.95 22.85-4.136 38.9-4.218m181.13 15.51c-5.04-12.152-11.64-24.26-21.92-36.293 0 0 5.24-1.207 14.3-1.988 9.02-.898 21.87-.63 36.9 1.36 30.04 4.07 69.14 18.17 101.53 53.32 26.56 29.34 32.65 57.97 38.55 84.46 5.78 26.398 11.3 51.597 33 74.097 0 0-5.94-.6-15.66-2.457-4.9-.94-10.7-2.27-17.15-3.953a264.68 264.68 0 0 1-21.3-5.777c-30.43-9.922-67.66-25.512-96.92-55.54-5.7-5.98-10.5-11.613-14.68-17.473-4.18-5.777-7.66-11.64-10.67-17.5-5.97-11.8-10-23.75-13.75-35.777-3.7-12.07-7.22-24.25-12.26-36.48m206.95-32.04c4.22.23 9.34.62 15.16 1.4 5.78.75 12.26 1.882 19.18 3.793a209.11 209.11 0 0 1 22.03 7.418c7.62 3.17 15.54 6.84 23.4 11.878 7.93 4.922 15.82 10.66 23.47 17.383a172.14 172.14 0 0 1 11.33 10.899c3.7 4.02 7.3 8.32 10.78 12.85 11.4 15.04 18.1 29.297 22.38 42.97 4.3 13.672 6.18 27.1 8 39.84 1.8 12.78 3.56 25.12 7.23 37.148 1.87 5.98 4.18 11.883 7.26 17.742 1.57 2.93 3.3 5.86 5.24 8.75 1.9 2.97 4.06 5.942 6.44 8.942 0 0-1.4-.4-3.94-1.012l-10.86-2.9c-9.18-2.622-21.8-6.8-35.94-12.97-7.1-2.9-14.57-6.3-22.18-10.28-7.58-3.9-15.32-8.75-22.97-13.55-7.66-5-15.2-10.63-22.43-17a163.6 163.6 0 0 1-10.5-10.121c-3.44-3.437-6.68-7.07-9.9-10.937-9.88-12.03-16.36-23.863-21-35.582-2.3-5.86-4.14-11.72-5.78-17.54-1.57-5.742-2.9-11.53-4.14-17.352-5-23.16-8.75-46.68-25.78-71.7 0 0 5-.43 13.5-.078m243.6 43.38c6.3 2.34 13.05 5.1 20 8.75a169.34 169.34 0 0 1 20.98 13.36c7.07 5.2 14.14 11.133 20.9 18.16 6.72 7.1 13.2 15.2 19.18 24.262 4.92 7.5 8.75 14.687 11.76 21.64 3 7 5.15 13.98 6.75 20.618 3.2 13.32 4.3 25.94 5.36 38.05.97 12.1 1.9 23.8 4.76 35.313 2.8 11.488 7.42 23.277 15.78 35 0 0-5.23-1.524-13.67-4.922-8.36-3.512-20.2-8.078-33.08-15.12-12.97-7.07-27.35-15.43-41.06-26.4-13.7-11.17-27.07-23.67-37.85-39.6-8.48-12.422-13.87-23.9-17.46-35.2-3.63-11.332-5.47-22.422-7-33.55-3.25-22.23-5.12-44.96-19.42-69.53 0 0 4.65-.04 12.5.97 7.85 1.1 18.87 3.68 31.56 8.2m240.1 86.91c6.37 5.27 12.5 11.68 18.4 18.832 5.86 7.148 11.52 15.16 16.64 24.097a118.59 118.59 0 0 1 9.92 21.332 130.91 130.91 0 0 1 5.32 19.879c2.42 12.77 2.9 24.65 3.32 36.06.4 11.402.7 22.57 2.77 33.75 2.03 11.2 5.82 22.383 13.05 34.02 0 0-4.85-1.796-12.5-5.546-7.7-3.672-18.17-9.57-30-16.762-23.44-14.918-51.45-36.95-70-68.12-7.3-12.1-11.72-23.52-14.46-34.5-1.32-5.5-2.34-10.902-3.04-16.25-.75-5.308-1.3-10.6-1.72-15.86-1.88-21.062-2.7-42.2-14.53-66.883 0 0 17.1 1.684 40.1 12.07 11.4 5.363 24.14 13.17 36.72 23.87m143.72 55.31c4.42 1.8 9.14 4.262 14.26 7.153 10.16 5.86 21.68 13.75 32.74 24.808 10.93 11.25 21.68 25.153 30.43 42.73 14.1 29.34 14.14 52.34 13.9 74.218-.3 21.872-.58 41.954 11.76 64.922l-3-1.558c-1.95-1.024-4.76-2.5-8.24-4.492-6.95-3.95-16.45-9.848-26.84-17.782-10.4-7.808-22-17.18-32.65-28.816-5.28-5.863-10.6-11.883-15.43-18.524-4.92-6.636-9.42-13.828-13.28-21.558-6.02-12.15-9.73-22.852-11.76-33.442-2.15-10.468-2.7-20.468-3.13-30.546-.4-10.043-.5-20.153-1.83-30.66-1.37-10.43-3.83-21.37-8.8-33.32 0 0 3.87.617 10.4 2.65 3.2 1.058 7.1 2.4 11.48 4.218m167.88 100.55c1.6.473 4 1.25 6.8 2.46 5.78 2.38 13.8 6.3 22.85 12.3a145 145 0 0 1 14.26 10.66c4.88 4.222 9.73 9.18 14.53 14.73 9.53 11.13 19 24.762 26.1 42.223 5.9 14.18 8.67 26.797 9.8 38.36 1.05 11.758.5 22.457 0 32.778-1.2 20.703-2.03 39.4 7.85 62.14 0 0-3.83-2.18-9.88-6.48-5.94-4.34-14.53-10.27-23.67-18.278-4.57-4.02-9.34-8.48-14.07-13.402-4.76-4.918-9.72-10.078-14.33-15.82-9.3-11.45-17.78-24.88-24.42-39.6-5.1-11.68-7.85-22.34-9.3-32.46-1.37-10.16-1.72-19.488-1.64-29.02-.12-18.9.82-38.1-7.4-61.3 0 0 .9.2 2.5.7m169.96 127.92s12.42 3.9 28.5 16.1c15.55 12.62 35.08 33.48 46.64 67.2 2.42 6.922 4.14 13.32 5.3 19.45 1.1 6.25 1.65 12.1 1.88 17.7.4 11.2-.47 21.332-1.37 31.1l-1.25 14.383c-.3 4.758-.54 9.6-.43 14.45.24 9.73 1.72 19.73 5.74 30.63 0 0-3.35-2.308-8.67-6.6-5.35-4.25-12.46-10.7-20.27-18.78-8-7.97-16.52-17.7-24.22-29.22-7.8-11.37-15.2-24.18-20.23-38.87-.98-2.848-1.84-5.7-2.62-8.4-.78-2.7-1.5-5.308-2.07-7.9-1.17-5.12-1.88-10.078-2.3-14.88-.97-9.6-.7-18.672-.27-27.742l.63-13.707c.1-4.57.1-9.223-.04-13.98-.43-9.492-1.68-19.652-4.96-30.902m160.8 153.148c4.45 2.582 10.54 6.883 17.34 13.172a131.56 131.56 0 0 1 10.55 11.008c3.6 4.26 7.34 8.9 10.7 14.5 6.68 11 13.05 24.453 17.62 40.66 3.43 13.55 4.53 25.312 4.4 36.02-.04 5.313-.4 10.4-.9 15.272-.47 4.88-1.33 9.73-2.03 14.37-1.48 9.34-2.9 18.3-3.24 27.5-.27 9.26.7 18.7 3.36 29.46 0 0-2.9-2.4-7.23-6.76-4.53-4.4-10.82-10.7-17.38-18.8-3.28-4.06-6.68-8.52-9.96-13.44-3.28-4.88-6.88-10-10.04-15.62-3.2-5.6-6.2-11.56-8.87-17.968-1.33-3.172-2.5-6.492-3.7-9.84-1.17-3.332-2.3-6.723-3.32-10.242-6.2-21.95-4.76-39.532-3.4-56.56.74-8.6 1.64-17.2 1.8-26.4.12-9.18-.35-19.14-2.97-29.922 0 0 2.74 1.05 7.27 3.6"/>
        <path
                d="M4056.84 1064.8c.54-8.8.46-18.16-1.06-28.8 0 0 9.5 4.42 21.2 16.84 5.82 6.17 11.68 14.72 17.27 25.43 2.73 5.4 5.4 11.32 7.77 17.93 2.15 6.68 4 14.02 5.43 21.95 1.2 6.52 1.88 12.66 2.2 18.4.15 2.9.2 5.62.15 8.36-.07 2.73-.3 5.43-.5 7.97-.98 10.4-2.93 19.64-4.8 28.5-3.55 17.62-7.97 34.1-4.14 54.73 0 0-9.8-9.53-20.08-25.78-11.1-15.94-22.38-38.56-27.57-65.75-3.56-21.56-2-37.8.74-54.4 1.2-8.2 2.85-16.64 3.36-25.4m86.3 236.1c1.1-8.55 2.93-16.52 4.9-24.5 3.44-15.74 7.3-31.64 6.4-52.38 0 0 2.07 1.13 5.28 3.83 3.2 2.7 7.6 6.9 12.26 13.16 4.6 6.25 9.85 14.34 13.9 24.92 3.94 10.67 7.23 23.64 8.83 39.03 3.7 51.36-19.92 73.94-16.96 114.14 0 0-1.9-2.42-4.84-6.84-2.8-4.5-7.2-10.82-11.33-18.8-4.3-7.97-8.28-17.54-11.72-28.4-3.7-10.78-6.44-22.85-7.22-36.2-.2-5.23-.63-10.04-.47-14.68.12-4.6.43-9.03 1-13.3m-1358.2-1051.5c10.4.7 20.7 1.993 31.17 2.97l15.63 1.602 7.8.82 7.8 1.02c20.94 2.77 42 5.27 63.05 8.94 42.2 6.45 84.5 15.348 126.9 25l31.72 7.93 15.9 4.03 15.82 4.406 31.68 8.87 47.27 14.57 46.95 15.902 46.64 17.098 15.35 6.1 30.74 12.258 30.43 13.05c20.4 8.44 40.16 18.1 60.16 27.2 39.57 19.14 78.67 38.938 116.33 60.47 38 21.13 74.5 44.02 110.2 67.148l39.42 26.75 12.77 9.223 25.5 18.32 24.76 18.828c16.57 12.34 32.35 25.512 48.13 38.2 7.97 6.332 15.5 13.05 23.16 19.57l22.7 19.6 21.87 20.043c7.27 6.64 14.57 13.13 21.45 20 13.87 13.64 27.85 26.758 40.86 40.6 52.8 54.3 98.75 109.527 137.46 163.117 38.75 53.563 70.27 105.512 95.4 152.932 6.3 11.88 12.54 23.28 17.77 34.73l15.63 32.7c9.1 21.37 18.08 40.75 24.65 58.9l9.84 25.47c2.93 8.1 5.3 15.74 7.77 22.85 4.77 14.18 9 26.2 11.68 36.17l8.44 29.1a118.34 118.34 0 0 1 5 7.11 337.37 337.37 0 0 1 8.71 14.42c3.05 5.4 6.33 11.37 9.57 17.9 1.6 3.24 3.32 6.64 4.85 10.16a263.68 263.68 0 0 1 4.33 11.01c2.8 7.54 5.55 15.6 8.05 24.02 1.13 4.18 2.46 8.48 3.4 12.86a279.01 279.01 0 0 1 2.42 13.51c1.48 9.14 2.46 18.17 3.12 26.88l.4 6.48a85.63 85.63 0 0 1 0 6.41 379.11 379.11 0 0 1-.31 12.42c-.4 8.08-.97 15.78-1.8 22.97l-1.3 10.43-1.92 9.6c-5.15 24.5-10.93 39.3-10.93 39.3s-7.66-14.37-15.94-37.18c-1.1-2.86-2.1-5.82-3.17-8.9l-3.43-9.65c-2.35-6.68-4.6-13.75-6.72-21.2-1.06-3.75-2.07-7.58-3.05-11.52l-1.37-5.94c-.58-1.95-1.05-3.98-1.6-6.02-2.03-8.08-3.8-16.52-5.2-25.23a293.92 293.92 0 0 1-1.72-12.93l-1.64-12.62c-.94-8.28-1.5-16.36-1.8-24.14a276.49 276.49 0 0 1-.23-11.4l-.36-10.82c-.1-7 0-13.6.16-19.73.23-6.06.6-11.6.98-16.56l.5-7.93-8.9-29.22c-2.78-9.85-7.07-21.68-12-35.67l-8.05-22.42-10.04-25.15c-6.72-17.82-15.86-36.88-25.12-57.86-4.92-10.4-10.4-21-15.86-32.14-5.35-11.22-11.64-22.4-17.96-34.03-25.5-46.52-57.27-97.38-96.26-149.84-38.9-52.382-84.96-106.25-137.8-159.222-12.97-13.48-27-26.207-40.86-39.5-6.9-6.68-14.18-13-21.4-19.492l-21.88-19.5-22.65-19.02c-7.62-6.328-15.16-12.9-23.05-18.98-15.82-12.386-31.5-25.16-48-37.1l-24.73-18.25-38.05-26.707-13.1-8.563-26.17-17.27c-35.5-22.38-71.8-44.45-109.5-64.762-37.4-20.777-76.2-39.726-115.4-58.1-19.85-8.707-39.46-17.93-59.6-26.008l-30.12-12.42-30.43-11.68-15.23-5.8-46.02-16.25-30.98-10.03-15.46-4.97-15.55-4.602-31.06-9.148-46.83-12.38c-5.2-1.332-10.47-2.5-15.67-3.75l-31.25-7.34c-41.72-8.95-83.32-17.2-124.72-22.9-20.7-3.32-41.33-5.55-61.84-7.93l-7.66-.942-7.7-.7-15.27-1.37-30.47-2.5c-81.02-5.4-159.6-4.77-233.52 1.84-73.87 6.832-143 19.25-205.47 35.582-62.42 16.25-118.08 36.488-165.86 57.66-47.73 21.25-87.96 42.688-119.6 62.688-16.13 9.46-29.76 19.18-41.87 27.27-12.15 7.9-21.8 15.62-29.88 21.524l-18.28 13.75-6.1 4.957-.15.203-.2.16-1.48 1.168-.04-.04c-14.42 10.7-32.35 11.72-40.78 1.95-8.4-9.762-3.6-27.23 10.7-39.84v-.04l1.56-1.25.16-.16.23-.152 6.45-5.16c4.25-3.36 10.86-8.007 19.37-14.218 8.6-6.05 18.83-14.102 31.72-22.23 12.8-8.277 27.23-18.277 44.34-28 33.43-20.47 75.82-42.43 125.93-63.95 50.12-21.4 108.32-41.68 173.3-57.7 64.92-16.06 136.52-27.93 212.65-33.95 76.17-5.82 156.8-5.4 239.6 1.25M1730.82 508.8c4.38-5.7 7.97-11.72 11.1-17.887 6.25-12.422 10.5-25.66 14.97-39.4 4.45-13.7 9.06-27.9 16.4-42.23 7.34-14.37 17.27-28.28 32.77-41.992 18.87-16.867 38.87-26.988 58.33-33.63 9.72-3.44 19.17-5.32 28.24-6.64 9.1-1.33 17.77-1.96 25.82-2.1 16.05.1 29.5 2.418 38.9 4.37 9.42 1.918 14.73 4.18 14.73 4.18-3.1 2.777-5.94 5.6-8.55 8.437-2.66 2.9-5.12 5.82-7.4 8.75-4.53 5.98-8.4 11.993-11.83 18.1-6.88 12.102-12.07 24.4-17.54 36.563-5.5 12.148-11.25 24.14-19 35.66-3.86 5.738-8.2 11.3-13.24 16.88-5.08 5.66-10.82 11.172-17.46 16.558a170.2 170.2 0 0 1-26.17 17.461c-9 5.082-18.13 9.493-27.23 13.012-4.53 1.758-9.02 3.32-13.47 4.72-4.5 1.37-9 2.97-13.36 4.18-8.8 2.5-17.27 4.378-25.24 5.8-16 3.12-30.12 4.8-40.15 5.312l-11.92.738-4.33.12c6.13-5.4 11.28-11.14 15.62-16.878M1606.4 355.88c32.5-35.04 71.64-49.02 101.68-53 15.03-1.918 27.93-2.15 36.95-1.3 9.06.82 14.26 2.07 14.26 2.07-10.28 12.03-16.96 24.06-22.03 36.2-5.08 12.22-8.56 24.4-12.35 36.438s-7.9 23.953-13.9 35.7c-3 5.93-6.53 11.75-10.67 17.54-4.22 5.82-9.02 11.44-14.76 17.42-29.34 29.918-66.6 45.4-97.1 55.23-7.62 2.38-14.77 4.22-21.25 5.7a293.15 293.15 0 0 1-17.2 3.86c-9.73 1.84-15.66 2.418-15.66 2.418 21.8-22.418 27.3-47.6 33.2-74.02 5.97-26.442 12.22-55.04 38.83-84.3M1359.6 510.02c3.1-5.848 5.43-11.75 7.3-17.77 3.75-11.988 5.5-24.328 7.35-37.1 1.87-12.692 3.8-26.13 8.16-39.762 4.34-13.68 11.02-27.93 22.5-42.93 3.48-4.57 7.1-8.828 10.78-12.82a174.93 174.93 0 0 1 11.37-10.82c7.7-6.75 15.63-12.457 23.55-17.38 7.86-5 15.83-8.63 23.48-11.758 7.66-3.082 15.08-5.5 22.03-7.344 6.92-1.906 13.36-3.047 19.18-3.75 5.82-.777 10.9-1.13 15.2-1.328 8.47-.352 13.47.12 13.47.12-17.14 24.918-20.93 48.438-26 71.64-1.3 5.777-2.62 11.52-4.18 17.297-1.64 5.863-3.48 11.68-5.82 17.543-4.7 11.68-11.2 23.52-21.17 35.507-3.13 3.87-6.5 7.46-9.9 10.903-3.4 3.547-6.95 6.9-10.54 10.078-7.27 6.36-14.8 11.95-22.46 16.9-7.66 4.8-15.4 9.6-23.05 13.48-7.58 3.98-15.08 7.38-22.23 10.23-14.14 6.13-26.8 10.277-35.97 12.8l-10.82 2.902-3.95.97c2.38-2.97 4.53-5.903 6.5-8.87a103.67 103.67 0 0 0 5.23-8.75m-178.2-15.728c1.05-12.07 2.14-24.652 5.43-37.972 1.64-6.637 3.78-13.6 6.8-20.58 3.05-6.992 6.88-14.14 11.84-21.64 6-9.03 12.54-17.07 19.26-24.18 6.8-7.03 13.86-12.93 20.97-18.13 7.03-5.2 14.14-9.57 21.06-13.28 6.9-3.6 13.67-6.37 20-8.672 12.7-4.527 23.67-7.066 31.56-8.1 7.9-1.008 12.54-.968 12.54-.968-14.4 24.57-16.37 47.26-19.65 69.492-1.6 11.13-3.44 22.187-7.07 33.508-3.67 11.3-9.06 22.742-17.58 35.2-10.86 15.86-24.26 28.32-37.97 39.453-13.8 10.898-28.2 19.22-41.13 26.3-12.97 6.96-24.8 11.488-33.16 15-8.44 3.32-13.68 4.918-13.68 4.918 8.36-11.75 13-23.47 15.9-35 2.86-11.52 3.83-23.2 4.9-35.348m-188.96 61.77c.43-11.45.98-23.32 3.398-36.1 1.2-6.37 2.97-12.93 5.4-19.808 2.46-6.9 5.66-14.063 9.92-21.332 5.2-8.938 10.86-16.9 16.76-24.06 5.94-7.1 12.1-13.48 18.44-18.75 12.65-10.66 25.4-18.44 36.83-23.8 23-10.27 40.16-11.9 40.16-11.9-11.95 24.6-12.77 45.777-14.73 66.87-.5 5.238-1 10.508-1.8 15.777-.75 5.36-1.72 10.8-3.1 16.25-2.8 11.02-7.23 22.4-14.53 34.5-18.67 31.05-46.76 53.082-70.24 67.852-11.87 7.187-22.34 13.078-30.03 16.68-7.738 3.7-12.54 5.508-12.54 5.508 7.262-11.6 11.1-22.816 13.16-33.95 2.032-11.25 2.418-22.34 2.9-33.75m-181.7 83.443c-.187-21.878-.04-44.9 14.14-74.18 8.793-17.54 19.6-31.45 30.6-42.66 11.05-11.012 22.582-18.832 32.77-24.692 5.12-2.847 9.883-5.308 14.262-7.1 4.38-1.8 8.28-3.16 11.52-4.14 6.53-2.027 10.43-2.648 10.43-2.648-5.04 11.9-7.54 22.847-8.937 33.32-1.332 10.47-1.492 20.617-1.922 30.66s-1.05 20.04-3.2 30.508c-2.07 10.6-5.782 21.25-11.87 33.402-3.9 7.73-8.442 14.88-13.32 21.52-4.9 6.68-10.238 12.617-15.55 18.48-10.668 11.598-22.27 20.98-32.738 28.75-10.35 7.848-19.922 13.707-26.832 17.65a214.52 214.52 0 0 1-8.277 4.46l-3.012 1.558c12.383-22.9 12.2-42.968 11.95-64.88M639.57 744.1c-.55-10.28-1.05-21.02.04-32.78 1.2-11.52 3.98-24.137 9.96-38.32 7.1-17.418 16.602-30.968 26.2-42.1 4.8-5.54 9.688-10.5 14.528-14.68a151.88 151.88 0 0 1 14.3-10.668c9.063-5.972 17.1-9.883 22.9-12.222 2.852-1.22 5.2-1.957 6.84-2.43 1.6-.457 2.5-.66 2.5-.66-8.3 23.16-7.43 42.34-7.54 61.25 0 9.53-.352 18.87-1.8 29.02-1.45 10.12-4.18 20.782-9.38 32.434-6.672 14.72-15.2 28.117-24.53 39.527-4.68 5.742-9.6 10.86-14.37 15.78s-9.528 9.372-14.14 13.32c-9.098 7.97-17.777 13.898-23.707 18.238-6.062 4.262-9.9 6.45-9.9 6.45 9.93-22.7 9.14-41.45 8.1-62.148M483.7 883.93c-.27-4.758-.7-9.532-1.133-14.37-.898-9.77-1.758-19.848-1.3-31.098.23-5.582.86-11.44 1.9-17.652 1.18-6.137 2.973-12.58 5.4-19.457 11.68-33.7 31.25-54.493 46.88-67.07 16.1-12.152 28.5-16 28.5-16-3.28 11.25-4.57 21.36-5.03 30.902-.2 4.797-.2 9.406-.078 13.976l.578 13.7c.4 9.102.63 18.16-.308 27.73-.512 4.808-1.25 9.77-2.422 14.93a110.32 110.32 0 0 1-2.11 7.851c-.738 2.73-1.64 5.508-2.62 8.4-5.078 14.652-12.457 27.42-20.347 38.8-7.692 11.48-16.3 21.2-24.3 29.18-7.9 8.043-15 14.4-20.352 18.7-5.308 4.3-8.707 6.52-8.707 6.52 4.098-10.86 5.6-20.82 5.9-30.6.082-4.84-.12-9.68-.47-14.45M364.02 909.52c3.32-5.55 7.152-10.24 10.7-14.46 3.63-4.22 7.18-7.848 10.58-10.97 6.84-6.25 12.9-10.55 17.42-13.13 4.54-2.5 7.3-3.55 7.3-3.55-2.7 10.738-3.16 20.7-3.1 29.88.12 9.223.98 17.813 1.68 26.45 1.332 17.032 2.7 34.602-3.6 56.563-.98 3.47-2.1 6.87-3.36 10.187-1.168 3.364-2.38 6.684-3.75 9.812-2.62 6.4-5.66 12.38-8.87 17.97-3.2 5.58-6.8 10.7-10.08 15.58a173.04 173.04 0 0 1-10 13.4c-6.6 8.1-12.93 14.34-17.42 18.7-4.45 4.42-7.297 6.8-7.297 6.8 2.726-10.74 3.707-20.24 3.437-29.45-.277-9.22-1.72-18.2-3.168-27.5-.66-4.7-1.48-9.54-1.953-14.42s-.816-9.92-.86-15.27c-.04-10.672 1.05-22.422 4.53-35.98 4.648-16.2 11.02-29.653 17.77-40.62m-135.59 209.418c1.442-7.93 3.32-15.27 5.512-21.95a143.96 143.96 0 0 1 7.852-17.89c5.578-10.7 11.476-19.18 17.297-25.4 11.76-12.4 21.293-16.76 21.293-16.76-1.563 10.62-1.723 20.04-1.172 28.8.5 8.75 2.1 17.2 3.32 25.4 2.66 16.64 4.18 32.85.6 54.45-5.28 27.15-16.64 49.77-27.78 65.67-10.348 16.17-20.188 25.66-20.188 25.66 3.86-20.55-.473-37.07-3.95-54.73-1.87-8.86-3.793-18.12-4.723-28.47l-.508-8c-.043-2.74.04-5.47.188-8.36.32-5.74 1.062-11.84 2.27-18.4M140.6 1305.5c1.68-15.43 4.96-28.36 8.898-39.02 4.14-10.55 9.383-18.67 14.032-24.88 4.68-6.2 9.1-10.43 12.3-13.13s5.27-3.83 5.27-3.83c-.93 20.8 2.9 36.64 6.2 52.43 2 7.96 3.8 15.93 4.847 24.5.512 4.26.864 8.67.942 13.28.1 4.7-.32 9.45-.512 14.73-.816 13.32-3.598 25.43-7.348 36.17-3.468 10.82-7.5 20.43-11.8 28.36-4.18 7.97-8.6 14.25-11.37 18.7-2.93 4.45-4.922 6.83-4.922 6.83 3.122-40.15-20.468-62.8-16.558-114.14M1930.66 260.8c-7.9-2.887-16.28-6.5-24.96-10.9-8.67-4.38-17.58-9.77-26.68-15.512-18.16-11.718-36.68-27.66-54.14-47.617-14.33-16.64-23.4-32.85-29.65-48.043-6.25-15.238-9.68-29.968-13.2-44.257-3.48-14.262-7-28.012-13.75-41.3-3.36-6.64-7.5-13.172-12.9-19.53-5.4-6.332-11.95-12.3-20.2-18.238l6.17.457c3.98.4 9.72.82 16.9 1.96 14.34 2.262 34.18 5.78 56.2 12.1 11.02 3.32 22.58 7.262 34.18 11.832 5.82 2.348 11.64 4.6 17.42 7.457a337.48 337.48 0 0 1 17.19 8.992c11.33 6.328 22.23 13.28 32.3 21.25 10.07 8.2 19.33 17.1 27.3 26.83 6.25 7.62 11.1 14.96 14.92 22.2 3.83 7.27 6.57 14.45 8.6 21.4 4.06 14.06 5.2 27.5 5.86 40.93.58 13.44.66 26.88 2.3 40.8.82 7.03 2 14.1 3.8 21.36.94 3.64 1.95 7.352 3.24 11.102 1.2 3.8 2.58 7.648 4.22 11.6 0 0-5.94-.82-15.82-2.77-9.92-2.043-23.6-5.863-39.34-12.113m-167.26-19.53s-5.6.5-15.04.082c-9.45-.473-22.77-1.1-38.4-4.18-31.25-6.172-71.48-19.223-110.78-51.563-32.34-26.25-44.37-53.28-55.86-78.8-5.82-12.77-11.56-24.88-20.04-36.05-8.47-11.18-19.76-21.37-36.76-30.04 0 0 8-.742 21.3-.98 6.6-.12 14.53-.12 23.44.16 8.95.47 18.83 1.3 29.34 2.54 41.83 4.64 93.55 19.18 129.84 49.6 7.1 5.82 13 12.07 17.85 18.12a116.67 116.67 0 0 1 12.03 18.281c6.5 12.148 10.24 24.38 13.52 36.68 3.28 12.27 6.05 24.6 10.35 37.23 4.3 12.65 10.08 25.617 19.22 38.938"/>
        <path
                d="M1497.1 176.43c10.66 21.76 19.7 44.058 41.52 65.468 0 0-5.04 1.372-13.8 2.622-4.37.62-9.68 1.17-15.78 1.52-6.05.313-12.93.43-20.35.4-7.46-.12-15.5-.62-24.1-1.72-8.56-1.133-17.7-2.93-27.03-5.12-9.42-2.262-19.18-5.352-29.26-9.328-5-2.032-10.12-4.3-15.23-6.84-5.12-2.422-10.28-5.082-15.5-8.043-17.2-9.8-29.77-20.6-39.88-31.64-10.12-11.097-17.74-22.187-25.24-33.008-7.54-10.82-14.88-21.2-24.65-30.4a100.99 100.99 0 0 0-16.72-12.699c-3.2-1.95-6.64-3.75-10.35-5.43-3.67-1.68-7.58-3.16-11.83-4.53l5.04-1.2c3.28-.777 8.08-1.72 14.17-2.66 12.08-1.867 29.03-4.02 48.52-4.797a377.09 377.09 0 0 1 30.9.617c10.74.7 21.68 1.6 32.77 3.87 11.06 2.07 22.1 4.84 32.78 8.52 5.35 1.832 10.62 3.86 15.74 6.1 5.12 2.38 10.15 5.04 15 7.9 15.2 8.95 25.82 18.672 34.02 28.8 4.06 5.082 7.58 10.27 10.7 15.512 3.13 5.308 5.9 10.738 8.56 16.13m-230.85 43.248c13.67 18.277 26.02 37 50.12 53.75 0 0-4.42 1.957-12.35 4.258-7.85 2.308-19.1 5.4-32.97 7.1-6.95.94-14.57 1.4-22.65 1.64-8.13.308-16.76.2-25.9-.66-9.06-.782-18.75-2.4-28.67-4.692-9.96-2.1-20.35-5.156-31.02-9.22-8.8-3.36-16.56-7.07-23.55-11.1-7-4-13.1-8.05-18.7-12.348-11.2-8.594-20.2-17.9-29.03-26.75-8.82-8.9-17.46-17.434-28.08-24.543-10.6-7.1-23.05-12.418-39.73-15.3 0 0 6.3-2.582 17.03-6.05 10.67-3.64 26.06-7.46 43.83-10.75 17.77-3.4 38.36-5.192 59.3-4.68 20.9.4 42.54 4.22 62.34 11.68 15.5 5.742 27.07 13.28 36.52 21.44 9.38 8.2 16.65 17.1 23.52 26.2M1043.7 290.73c16.06 14.65 30.94 30.192 56.13 41.52 0 0-14.92 9.84-40.1 16.762-12.54 3.668-27.58 6.867-44.9 7.726-8.67.4-17.77.55-27.38-.04-9.7-.62-19.8-1.988-30.512-4.25-8.8-1.96-16.597-4.14-23.7-6.68-7.148-2.58-13.6-5.47-19.527-8.64-11.95-6.3-21.9-13.43-31.68-20.27-9.76-6.87-19.26-13.32-30.312-18.12-11.02-4.847-23.63-8.1-39.688-8.476 0 0 5.43-3.133 14.8-7.66 9.45-4.493 22.648-10.743 38.75-15.782 31.95-10.7 74.37-18.87 113.94-10.66 15.508 3.28 27.5 8.238 37.66 14.262 5.1 2.957 9.72 6.207 14.02 9.598 4.4 3.44 8.48 7.07 12.5 10.7M858.828 403.46c9.57 5.16 20.192 9.73 33.012 13.05 0 0-3.05 2.726-8.9 6.68a137.68 137.68 0 0 1-10.782 6.68c-4.296 2.34-9.136 5.117-14.648 7.65-11.02 5.242-24.648 9.968-40.55 13.44-15.777 3.7-34.14 5.55-54.758 4.648-33.793-1.02-55.742-11.558-76.293-20.7-20.6-9.07-40.16-17.46-70.2-13.28l3.172-2.578c2.1-1.602 5.23-3.8 9.22-6.53 7.96-5.4 19.4-12.57 33.32-19.84 13.9-7.192 30.5-13.942 48.2-19.18 8.8-2.62 18.16-4.45 27.54-5.738 9.454-1.293 19.024-1.883 28.55-1.602 14.922.352 27.23 3.36 37.82 7.18 10.582 3.9 19.6 8.95 28.4 14.262 8.8 5.277 17.3 10.777 26.918 15.86m-163.927 121.2s-.582.75-1.8 2l-5.23 5.387c-4.692 4.57-11.68 10.66-21.1 16.953-4.653 3.16-10 6.367-15.942 9.4-5.86 3.168-12.27 6.367-19.38 9.22-14.18 5.738-31.1 10.16-50.4 13.007-15.97 2.274-29.57 1.993-41.87.512-12.188-1.3-22.97-3.8-33.52-6.172-21.008-4.566-41.25-8.95-68.36.274 0 0 3.44-3.992 9.808-10.242 6.25-6.32 15.82-14.372 27.5-23.04a284.27 284.27 0 0 1 19.14-13.09c6.9-4.332 14.45-8.243 22.34-11.993 15.75-7.378 32.9-13.558 51.14-15.898 14.18-2.03 26.05-1.72 36.68-.078 10.62 1.566 20.192 4.726 29.45 7.97 18.55 6.68 36.293 14.14 61.524 15.78M465.47 655.922a279.87 279.87 0 0 0 14.53 1.566c9.96.742 20.6.82 32.54-.816 0 0-6.4 12.027-21.64 26.398-14.878 14.852-38.707 31.72-73.988 43.9a187.09 187.09 0 0 1-20.7 5.58c-6.44 1.4-12.54 2.312-18.402 2.93-11.68 1.2-22.418 1.063-32.848 1.063-5.23 0-10.352 0-15.512.23a143.06 143.06 0 0 0-15.47 1.68c-10.43 1.88-21.28 5.3-33.28 11.88 0 0 2.5-4.14 7.27-10.75 4.73-6.602 11.722-15.82 20.902-25.7 9.328-9.762 20.738-20.313 33.86-30 13.3-9.6 28.56-17.9 44.9-23.87 3.238-1.13 6.328-2.14 9.328-3 3.05-.782 6.02-1.5 8.9-2 5.743-1.13 11.172-1.7 16.37-2.032 10.43-.54 19.918.203 29.22 1.293l14.02 1.64M318.44 820.02c9.5-1.56 19.258-4.098 30.387-7.9 0 0-.898 2.9-3.207 7.78-2.262 4.918-5.742 11.95-11.242 19.918-2.777 3.98-6.02 8.242-9.8 12.66-3.75 4.37-8.242 8.782-13 13.55-9.68 9.45-21.95 18.98-37.457 28.05-12.46 7.7-23.903 12.7-34.762 16.332-5.4 1.828-10.63 3.316-15.8 4.68l-14.84 3.828c-9.7 2.5-19.102 5.04-28.6 9.058-9.53 3.992-19.18 9.422-28.7 18.172 0 0 1.36-4.18 4.25-11.1 3.012-6.83 7.78-16.207 14.18-26.9 3.28-5.347 6.96-10.976 11.058-16.796 4.102-5.782 8.98-11.364 14.14-17.07 5.23-5.66 10.86-11.25 16.95-16.52 3.05-2.66 6.2-5.274 9.532-7.703a181.43 181.43 0 0 1 10.429-6.868c22.5-13.632 40.512-17.46 58.87-19.57 9.102-1.133 18.16-1.992 27.62-3.6M182.73 1005.65c8.64-3.83 17.54-8.4 26.88-14.728 0 0-.43 11.058-7.23 27.498-3.4 8.25-7.93 18.13-15.04 28.64a167.46 167.46 0 0 1-12.5 16.4c-4.6 5.74-9.88 11.68-15.97 17.7a172.24 172.24 0 0 1-14.85 13.04c-2.38 1.92-4.8 3.72-7.18 5.43l-6.88 4.9c-9.102 6.17-17.973 11.05-26.602 15.82-17.38 9.53-32.77 19.37-47.07 39.53 0 0 1.3-15.67 7.93-37.74 7.34-21.68 19.922-49.96 42.812-72.9 17.3-18.2 34.297-25.93 50.668-33l25.03-10.6m-80.966 185.66s.617 2.4 1.008 6.88c.4 4.4.5 10.94-.47 19.1-.9 8.16-3.242 17.9-7.07 29.22-3.7 11.4-9.37 24.14-17.96 38.24-26.68 46.92-58.988 57.03-74.93 101.02 0 0-.78-3.44-1.48-9.53-.898-6.1-1.06-14.73-.63-25.24.508-10.43 1.648-22.8 4.848-35.9 3.402-13 8.473-26.9 15.78-40.54 2.73-5.4 6.1-10.04 9.22-14.42a158.02 158.02 0 0 1 9.652-11.76c6.52-7.1 13.16-13.04 19.88-18.8 13.94-11.17 28.12-21.4 42.153-38.28M2417.5 523.738c-8.48 9.762-26.37 8.7-40.74-2l-.04.043-1.45-1.2-.15-.148-.28-.16-5.97-5c-4.03-3.282-10.24-7.742-18.2-13.75-8.04-5.942-17.65-13.7-29.8-21.64-12.03-8.05-25.55-17.812-41.68-27.27-31.52-20.043-71.6-41.64-119.18-62.973-47.58-21.3-103.12-41.64-165.43-58.04-62.27-16.53-131.25-29.14-205-36.168-73.8-6.883-152.27-7.742-233.16-2.582-10.16.54-20.28 1.64-30.43 2.422l-23 1.988-7.66.86c-20.47 2.38-41.13 4.532-61.76 7.77-41.4 5.6-82.93 13.68-124.68 22.46l-31.25 7.23-15.63 3.7-15.58 4.06-31.25 8.2-46.64 13.508-15.43 5-30.94 9.9-30.74 10.7-15.32 5.4-15.23 5.742-30.43 11.56-30.12 12.308c-20.15 8.012-39.798 17.192-59.6 25.82-39.25 18.203-78.04 37.03-115.5 57.66-37.7 20.152-74.027 42.14-109.54 64.37l-26.25 17.148-13.04 8.6-12.742 8.832-25.4 17.7-24.718 18.12c-16.532 11.918-32.27 24.6-48.008 36.918-7.973 6.1-15.512 12.57-23.172 18.863l-22.692 18.988-21.878 19.37c-7.258 6.4-14.57 12.74-21.442 19.418-13.906 13.16-27.93 25.9-40.937 39.3-52.93 52.742-99.102 106.4-138.12 158.602-39.07 52.22-70.98 102.93-96.532 149.3-6.398 11.64-12.726 22.78-18.078 33.95l-15.94 32.03c-9.297 20.94-18.52 39.92-25.27 57.7l-10.12 25.03c-3.008 7.93-5.508 15.43-8.047 22.4-4.922 13.94-9.3 25.7-12.1 35.54l-8.832 28.64.55 8.47a450.04 450.04 0 0 1 .86 16.64c.2 6.06.23 12.66.078 19.65l-.348 10.78c-.04 3.75-.12 7.54-.32 11.4-.308 7.77-.93 15.82-1.9 24.1-.47 4.14-1.172 8.32-1.68 12.58s-1.1 8.6-1.8 12.9a300.85 300.85 0 0 1-5.309 25.2l-1.602 6-1.45 5.9c-.93 3.9-1.988 7.73-3.04 11.45-2.2 7.42-4.46 14.5-6.84 21.13l-3.512 9.6-3.168 8.9c-8.402 22.74-16.2 37.04-16.2 37.04s-5.66-14.9-10.66-39.34c-.672-3.05-1.25-6.3-1.84-9.6s-.902-6.8-1.332-10.4c-.738-7.2-1.328-14.84-1.637-22.93-.152-4.06-.273-8.2-.273-12.42 0-2.1-.04-4.3.043-6.4l.47-6.48c.66-8.7 1.68-17.7 3.16-26.8.78-4.57 1.602-9.06 2.54-13.48.94-4.4 2.23-8.63 3.44-12.85a355.92 355.92 0 0 1 8.16-23.94l4.38-10.94c1.602-3.48 3.28-6.88 4.922-10.08 3.277-6.48 6.52-12.46 9.648-17.8 3.12-5.4 6.1-10.16 8.8-14.34 1.563-2.46 3.12-4.65 4.602-6.6l8.72-29.53c2.692-9.96 6.95-21.95 11.75-36.1l7.86-22.78 9.883-25.43c6.636-18.08 15.66-37.42 24.758-58.7l15.7-32.62c5.3-11.4 11.56-22.77 17.848-34.57 25.274-47.3 56.87-99.098 95.742-152.46 38.828-53.387 84.88-108.36 137.8-162.5 12.973-13.707 27.03-26.83 40.902-40.348 6.918-6.832 14.22-13.32 21.5-19.96l21.9-19.922 22.73-19.488c7.66-6.53 15.238-13.2 23.2-19.46 15.82-12.688 31.598-25.777 48.2-38.04l24.8-18.75 25.46-18.25 12.82-9.14 13.12-8.82 26.328-17.777c35.743-23.043 72.3-45.782 110.27-66.723 37.742-21.438 76.8-41.05 116.4-60.07 20-9.028 39.8-18.637 60.2-27l30.43-12.93 30.75-12.14 15.4-6.02 15.5-5.7 31.1-11.3 46.95-15.742 47.3-14.418 47.46-13.12c5.27-1.4 10.62-2.62 15.9-3.95l31.7-7.77c42.4-9.53 84.7-18.32 126.84-24.6 21.06-3.6 42.1-6.062 62.97-8.75l7.8-1.02 23.48-2.34 31.13-2.852c82.7-6.37 163.24-6.53 239.3-.512 76 6.25 147.46 18.32 212.22 34.532 64.8 16.25 122.86 36.6 172.86 58.13 49.92 21.64 92.18 43.7 125.46 64.25 17.07 9.73 31.4 19.77 44.18 28.1 12.86 8.122 23.05 16.172 31.6 22.274l19.3 14.207 6.4 5.16.2.2.2.114 1.56 1.25-.04.078c14.22 12.62 19 30.082 10.55 39.808M885.976 936.193c24.05 0 44.132 9.9 60.255 29.778 16.067 19.957 24.13 46.027 24.13 78.227 0 81.826-27.84 122.8-83.505 122.8-57.345 0-85.975-38.9-85.975-116.633 0-33.734 7.928-61.213 23.78-82.446 15.864-21.14 36.295-31.716 61.315-31.716zm82.806-71.347l-.7 45.977c-23.036-37.345-58.046-56.015-104.996-56.015-24.097 0-46.114 4.576-66.075 13.732-19.856 9.258-36.95 22.595-51.268 39.997-14.355 17.35-25.63 38.583-33.826 63.6-8.096 25.1-12.156 53.47-12.156 85.098 0 28.628 3.395 54.83 10.227 78.575 6.915 23.828 16.992 44.438 30.298 61.836 13.262 17.353 29.46 30.737 48.63 40.163 19.247 9.516 41.132 14.275 65.714 14.275 46.5 0 83.765-19.687 111.874-59.015v187.092h98.13V864.846h-95.84zm382.878 225.336c-.485 13.825-2.9 25.977-7.227 36.463-4.364 10.443-10.125 19.112-17.263 26.08-7.182 6.915-15.413 12.02-24.67 15.325-9.156 3.394-18.582 5.108-28.188 5.108-20 0-37.254-7.352-51.788-22.023-14.58-14.58-22.912-34.883-25.02-60.952h154.157zm-157.156-62.724c1.5-28.673 9.776-51.44 24.84-68.352 15.154-16.834 34.976-25.198 59.556-25.198 16.293 0 30.692 3.695 43.162 11.104 12.55 7.394 20.656 17.7 24.3 31.007h102.707c-11.76-38.9-32.2-68.846-61.304-89.856-29.158-20.925-63.9-31.354-104.297-31.354-125.788 0-188.693 68.533-188.693 205.594 0 29.114 4.104 55.408 12.335 78.927 8.197 23.476 20.08 43.603 35.585 60.426 15.594 16.913 34.627 29.823 57.087 38.765 22.55 9.032 48.36 13.564 77.518 13.564 58.226 0 102.267-18.672 132.136-56.027 29.947-37.343 44.92-93.553 44.92-168.6h-259.863zm383.192-162.612l-134.955 377.192h111.164l78.927-249.106 79.807 249.106h105.007l-135.654-377.192h-104.297zm507.56 0v52.858c-25.63-41.935-64.743-62.895-117.33-62.895-18.943 0-36.205 3.347-51.8 10.037-15.64 6.694-29.068 16.12-40.343 28.364-11.185 12.2-20 26.78-26.43 43.692-6.337 16.913-9.505 35.813-9.505 56.73v248.406h99.708v-233.075c0-46.995 21.186-70.47 63.604-70.47 25.584 0 44.92 8.008 57.967 24.133 13.034 16.075 19.55 36.645 19.55 61.662v217.752h98.84V864.846h-94.262zm132.62 0h99.72v515.314h-99.72V864.846zm352.84 248.414h92.84v-107.296c0-20-2.943-39.067-8.806-57.253-5.897-18.112-15.1-34.18-27.658-48.273-12.47-14.014-28.324-25.1-47.57-33.306-19.157-8.184-42.012-12.323-68.532-12.323-27.613 0-51.18 4.14-70.65 12.323-19.37 8.197-35.36 19.212-47.92 32.95-12.46 13.834-21.5 29.954-27.128 48.277-5.638 18.402-8.457 37.874-8.457 58.306v337.382h98.13V1242.04h208.594v-70.47h-208.594V1016.7c0-24.097 4.454-42.63 13.395-55.668 9.032-13.04 23.78-19.56 44.222-19.56 19.8 0 34.435 6.4 43.86 19.203 9.516 12.773 14.275 30.915 14.275 54.434v98.14zm128.257-248.414v377.192h93.552v-45.27c8.186 12.775 16.778 22.765 25.72 29.947 8.896 7.137 18.063 12.595 27.478 16.383 9.516 3.88 19.078 6.348 28.718 7.397 9.742 1.06 19.732 1.6 29.96 1.6h13.034v-102.007c-9.167 1.497-18.322 2.3-27.5 2.3-60.864 0-91.25-30.434-91.25-91.256V864.846h-99.72zm456.337 184.8c-5.063-5.197-12.46-9.3-22.2-12.332-9.652-3.08-23.7-6.338-42.113-9.866-28.673-5.638-48.405-12.82-59.196-21.494-10.7-8.725-16.022-21.23-16.022-37.52 0-28.188 16.112-42.283 48.44-42.283 12.685 0 24.5 2.154 35.416 6.514 11.016 4.32 20.476 10.22 28.37 17.613 7.972 7.4 14.354 16.08 19.202 26.08 4.927 9.958 7.397 20.612 7.397 31.888l.7 41.402zm7.058-184.8c-3.18 9.74-5.243 20.97-6.168 33.655-11.76-13.306-27.4-23.916-46.872-31.9-19.37-7.844-41.877-11.803-67.472-11.803-43.466 0-75.32 9.596-95.5 28.716-20.08 19.248-30.128 44.212-30.128 74.872 0 27.126 4.318 48.708 13.046 64.833 8.67 16.075 20.656 28.716 35.935 37.882 15.368 9.157 33.657 15.9 54.787 20.252 21.23 4.32 44.402 8.334 69.422 11.985 25.02 3.52 41.843 8.188 50.56 14.094 8.682 5.854 13.034 15.504 13.034 28.9 0 12.2-5.762 21.763-17.263 28.722-11.4 6.92-26.87 10.394-46.33 10.394-23.036 0-39.554-5.198-49.5-15.502-9.866-10.22-16.124-23.736-18.672-40.526h-92.84c.564 19.385 3.777 37.222 9.686 53.56 5.852 16.428 15.323 30.522 28.358 42.283 13.046 11.715 30.004 20.792 50.92 27.14 20.882 6.427 46.42 9.686 76.64 9.686 29.688 0 54.877-3.35 75.58-10.046 20.656-6.607 37.22-16.158 49.68-28.707 12.56-12.606 21.67-28.188 27.3-46.872 5.638-18.58 8.457-39.633 8.457-63.246V864.846h-92.66zm358.206 263.018c-2.47 17.354-8.986 30.004-19.55 37.886-10.486 7.972-26.43 11.974-47.92 11.974-20.442 0-35.9-2.458-46.342-7.397-10.475-4.848-15.673-13.126-15.673-24.842 0-10.213 5.198-18.454 15.673-24.67 10.44-6.12 25.64-11.976 45.63-17.613l82.806-23.427c22.55-6.347 40.57-13.883 54.088-22.55 13.474-8.73 23.16-19.565 29.068-32.597 5.852-13.038 8.806-30.567 8.806-52.5 0-33.734-14.05-61.754-42.102-84.032-28.098-22.203-69.727-33.297-124.908-33.297-27.14 0-51.7 3.122-73.65 9.337-21.976 6.077-40.783 14.882-56.377 26.426-15.628 11.492-27.658 25.282-36.115 41.393-8.366 16.08-12.8 34.1-13.384 54.1h102.707c0-17.966 7.047-31.844 21.14-41.573 14.094-9.655 32.326-14.447 54.798-14.447 18.886 0 35.1 2.9 48.62 8.8 13.6 5.85 20.442 14.882 20.442 27.126 0 13.835-5.03 23.824-14.985 29.95-10 6.074-25.2 11.5-45.62 16.213-36.78 8.104-66.423 16.596-88.974 25.536-22.46 9.034-39.95 18.9-52.498 29.598-12.606 10.668-21.062 22.428-25.37 35.235-4.228 12.777-6.348 27.14-6.348 42.992 0 14.3 2.9 27.84 8.806 40.526 5.863 12.764 15.154 24.04 27.84 33.826 12.775 9.73 29.43 17.522 49.86 23.43 20.442 5.852 45.496 8.806 75.23 8.806 54.133 0 93.72-11.05 118.74-33.116 25.1-21.987 38.934-52.33 41.403-91.095h-95.84z"/>
    </g>
</svg>
